# xmcd
#
# Track frame offsets: 
#        150
#        11351
#        23138
#        34804
#        46243
#        58656
#        71519
#        82383
#        93115
#        103623
#        115457
#        125407
#        137856
#        148380
#        158798
#        169911
#        181757
#        193643
#        207530
#        219405
#        231702
#        243477
#        255242
#        267924
#
# Disc length: 3739 seconds
#
# Revision: 2
# Processed by: cddbd v1.5.2PL0 Copyright (c) Steve Scherf et al.
# Submitted via: ExactAudioCopy v0.99pb5
#
DISCID=630e9918
DTITLE=Wanda Jackson - The Ultimate Collection CD1
DYEAR=2001
DGENRE=Rock and Roll
TTITLE0=I Gotta Know
TTITLE1=Right Or Wrong
TTITLE2=In The Middle Of A Heartache
TTITLE3=If I Cried Every Time You Hurt Me
TTITLE4=Slippin'
TTITLE5=The Violet And The Rose
TTITLE6=The Box It Came in
TTITLE7=Tears Will Be The Chaser For Your Wine
TTITLE8=Both Sides Of The Line
TTITLE9=A Girl Don't Have To Drink To Have Fun
TTITLE10=My Big Iron Skillet
TTITLE11=A Woman Lives For Love
TTITLE12=Fancy Satin Pillows
TTITLE13=My Baby Walked Right Out On Me
TTITLE14=Two Separate Bar Stools
TTITLE15=Crazy
TTITLE16=Jackson  [Live]
TTITLE17=Long Legged Guitar Pickin' Man  [Live]
TTITLE18=Singing The Blues
TTITLE19=You Win Again
TTITLE20=Cold, Cold Heart
TTITLE21=Silver Thread And Golden Needles
TTITLE22=Funny How Time Slips Away
TTITLE23=I'm So Lonesome I Could Cry
EXTD=
EXTT0=
EXTT1=
EXTT2=
EXTT3=
EXTT4=
EXTT5=
EXTT6=
EXTT7=
EXTT8=
EXTT9=
EXTT10=
EXTT11=
EXTT12=
EXTT13=
EXTT14=
EXTT15=
EXTT16=
EXTT17=
EXTT18=
EXTT19=
EXTT20=
EXTT21=
EXTT22=
EXTT23=
PLAYORDER=
